<?xml version="1.0" encoding="UTF-8"?>
<svg version="1.1" xmlns="http://www.w3.org/2000/svg" width="512" height="512">
<path d="M0 0 C1.45108658 0.00273422 1.45108658 0.00273422 2.93148804 0.00552368 C17.26440977 0.05095174 31.21023917 0.55983928 45.3125 3.3125 C46.65803955 3.55395752 46.65803955 3.55395752 48.03076172 3.80029297 C97.35869051 12.72613581 142.37957013 36.6028188 178.3125 71.3125 C178.93334473 71.91143066 179.55418945 72.51036133 180.19384766 73.12744141 C197.64861166 90.05790711 212.43209718 109.07019314 224.3125 130.3125 C224.71033691 131.01391113 225.10817383 131.71532227 225.51806641 132.43798828 C238.54164812 155.56335714 247.27925668 180.71547502 252.625 206.6875 C252.77235596 207.39801514 252.91971191 208.10853027 253.0715332 208.84057617 C256.05794017 224.48291051 256.68730954 240.11926093 256.625 256 C256.62226578 257.45108658 256.62226578 257.45108658 256.61947632 258.93148804 C256.57404826 273.26440977 256.06516072 287.21023917 253.3125 301.3125 C253.15152832 302.20952637 252.99055664 303.10655273 252.82470703 304.03076172 C243.89886419 353.35869051 220.0221812 398.37957013 185.3125 434.3125 C184.71356934 434.93334473 184.11463867 435.55418945 183.49755859 436.19384766 C166.56709289 453.64861166 147.55480686 468.43209718 126.3125 480.3125 C125.61108887 480.71033691 124.90967773 481.10817383 124.18701172 481.51806641 C101.06164286 494.54164812 75.90952498 503.27925668 49.9375 508.625 C49.22698486 508.77235596 48.51646973 508.91971191 47.78442383 509.0715332 C32.14208949 512.05794017 16.50573907 512.68730954 0.625 512.625 C-0.34239105 512.62317719 -1.3097821 512.62135437 -2.30648804 512.61947632 C-16.63940977 512.57404826 -30.58523917 512.06516072 -44.6875 509.3125 C-45.58452637 509.15152832 -46.48155273 508.99055664 -47.40576172 508.82470703 C-96.73369051 499.89886419 -141.75457013 476.0221812 -177.6875 441.3125 C-178.61876709 440.414104 -178.61876709 440.414104 -179.56884766 439.49755859 C-197.02361166 422.56709289 -211.80709718 403.55480686 -223.6875 382.3125 C-224.28425537 381.2603833 -224.28425537 381.2603833 -224.89306641 380.18701172 C-237.91664812 357.06164286 -246.65425668 331.90952498 -252 305.9375 C-252.22103394 304.87172729 -252.22103394 304.87172729 -252.4465332 303.78442383 C-255.43294017 288.14208949 -256.06230954 272.50573907 -256 256.625 C-255.99817719 255.65760895 -255.99635437 254.6902179 -255.99447632 253.69351196 C-255.94904826 239.36059023 -255.44016072 225.41476083 -252.6875 211.3125 C-252.44604248 209.96696045 -252.44604248 209.96696045 -252.19970703 208.59423828 C-243.27386419 159.26630949 -219.3971812 114.24542987 -184.6875 78.3125 C-184.08856934 77.69165527 -183.48963867 77.07081055 -182.87255859 76.43115234 C-165.94209289 58.97638834 -146.92980686 44.19290282 -125.6875 32.3125 C-124.6353833 31.71574463 -124.6353833 31.71574463 -123.56201172 31.10693359 C-100.43664286 18.08335188 -75.28452498 9.34574332 -49.3125 4 C-48.24672729 3.77896606 -48.24672729 3.77896606 -47.15942383 3.5534668 C-31.51708949 0.56705983 -15.88073907 -0.06230954 0 0 Z M-65.6875 39.3125 C-66.4707666 39.55307129 -67.2540332 39.79364258 -68.06103516 40.04150391 C-101.68699155 50.56018469 -131.4803522 68.83621483 -156.6875 93.3125 C-157.54770752 94.13403564 -157.54770752 94.13403564 -158.42529297 94.97216797 C-167.00672167 103.17896403 -174.6747353 111.7294961 -181.6875 121.3125 C-182.83992188 122.88257812 -182.83992188 122.88257812 -184.015625 124.484375 C-218.13836245 172.44710386 -233.39096178 233.51647054 -223.72265625 291.8828125 C-216.70930316 329.89560412 -202.48566164 366.28746752 -177.6875 396.3125 C-176.88441406 397.31796875 -176.08132812 398.3234375 -175.25390625 399.359375 C-163.89150575 413.39101692 -150.94045534 426.45611812 -136.33789062 437.10205078 C-134.70029241 438.30311764 -133.09187631 439.53638807 -131.484375 440.77734375 C-94.26887525 469.00806207 -46.67042341 482.7921193 -0.375 482.6875 C0.92985855 482.68718277 0.92985855 482.68718277 2.26107788 482.68685913 C24.1798511 482.63398484 45.33833436 479.85089577 66.3125 473.3125 C67.0957666 473.07192871 67.8790332 472.83135742 68.68603516 472.58349609 C102.31199155 462.06481531 132.1053522 443.78878517 157.3125 419.3125 C157.88597168 418.76480957 158.45944336 418.21711914 159.05029297 417.65283203 C167.63172167 409.44603597 175.2997353 400.8955039 182.3125 391.3125 C183.08078125 390.26578125 183.8490625 389.2190625 184.640625 388.140625 C218.76336245 340.17789614 234.01596178 279.10852946 224.34765625 220.7421875 C217.33430316 182.72939588 203.11066164 146.33753248 178.3125 116.3125 C177.50941406 115.30703125 176.70632813 114.3015625 175.87890625 113.265625 C164.51650575 99.23398308 151.56545534 86.16888188 136.96289062 75.52294922 C135.32529241 74.32188236 133.71687631 73.08861193 132.109375 71.84765625 C94.89387525 43.61693793 47.29542341 29.8328807 1 29.9375 C-0.30485855 29.93781723 -0.30485855 29.93781723 -1.63607788 29.93814087 C-23.5548511 29.99101516 -44.71333436 32.77410423 -65.6875 39.3125 Z " fill="#D9BA27" transform="translate(255.6875,-0.3125)"/>
<path d="M0 0 C6.13603188 4.51871312 11.43984178 10.30145046 16.80273438 15.68920898 C17.64270966 16.52903824 18.48268494 17.36886749 19.34811401 18.23414612 C22.0990389 20.98576266 24.84641368 23.74089462 27.59375 26.49609375 C29.50995895 28.41472856 31.42692438 30.33260686 33.34387207 32.25050354 C37.85761384 36.76733977 42.36880285 41.28671649 46.8790555 45.80703646 C52.01862346 50.95782445 57.16106858 56.1057359 62.30374432 61.25342071 C72.87234273 71.83244076 83.43736497 82.41502554 94 93 C97.2344306 91.57980732 99.36865649 89.86997669 101.84393311 87.3629303 C102.59514435 86.60724258 103.34635559 85.85155487 104.12033081 85.07296753 C104.93494781 84.24330475 105.74956482 83.41364197 106.58886719 82.55883789 C107.4544223 81.68554337 108.31997742 80.81224884 109.21176147 79.91249084 C111.09200184 78.01458792 112.9703689 76.11501266 114.84603119 74.21260262 C117.81579131 71.20141172 120.79483253 68.19952037 123.7756958 65.19932556 C132.25018396 56.66731516 140.7146446 48.12544422 149.1640625 39.56860352 C153.83239879 34.84107662 158.50973433 30.12264461 163.19700742 25.41389078 C166.15883351 22.43747104 169.10926565 19.45034385 172.05165815 16.45471776 C174.32210733 14.14986279 176.60909639 11.86151424 178.89355469 9.57055664 C179.70007477 8.74291809 180.50659485 7.91527954 181.33755493 7.06256104 C186.38537461 2.04110952 191.06919519 -2.00748225 198.57421875 -1.99609375 C203.8779617 -0.59418018 208.0552878 0.76370535 211.03515625 5.72265625 C213.09549208 10.20901523 213.39466197 13.91896016 211.98143864 18.65816498 C208.85377025 26.12117193 200.95725422 32.18233109 195.31079102 37.80273438 C194.47096176 38.64270966 193.63113251 39.48268494 192.76585388 40.34811401 C190.01423734 43.0990389 187.25910538 45.84641368 184.50390625 48.59375 C182.58527144 50.50995895 180.66739314 52.42692438 178.74949646 54.34387207 C174.23266023 58.85761384 169.71328351 63.36880285 165.19296354 67.8790555 C160.04217555 73.01862346 154.8942641 78.16106858 149.74657929 83.30374432 C139.16755924 93.87234273 128.58497446 104.43736497 118 115 C119.41576836 118.21651291 121.11201123 120.3560404 123.59910583 122.82615662 C124.34637939 123.57328918 125.09365295 124.32042175 125.86357117 125.0901947 C126.68388321 125.9001741 127.50419525 126.7101535 128.34936523 127.54467773 C129.21290619 128.40529816 130.07644714 129.26591858 130.96615601 130.15261841 C132.84266672 132.02151562 134.72087741 133.88849895 136.60220146 135.75253105 C139.57851061 138.70176353 142.54714816 141.65863766 145.5146637 144.61671448 C152.3518737 151.42984741 159.1990509 158.23293485 166.04634094 165.03593445 C172.32005703 171.26926756 178.59163702 177.50471029 184.85514218 183.74830586 C187.80361204 186.68682623 190.75688651 189.62040363 193.71396053 192.55026424 C195.9870058 194.80485018 198.25358314 197.06592442 200.52124023 199.32592773 C201.33952805 200.1338829 202.15781586 200.94183807 203.00090027 201.77427673 C203.75099365 202.52422913 204.50108704 203.27418152 205.27391052 204.04685974 C205.92486411 204.69337211 206.5758177 205.33988447 207.24649715 206.00598812 C211.6602913 211.02517471 212.54524398 214.79869207 212.3515625 221.33984375 C211.70733571 226.2144931 209.45628324 228.85858881 205.6875 231.8125 C200.92078147 233.91872447 197.43140386 234.37025779 192.35412598 233.05693054 C186.66750486 230.79307791 182.86089449 226.51963307 178.64648438 222.21411133 C177.74798767 221.31634476 176.84949097 220.41857819 175.92376709 219.49360657 C173.47498294 217.04624976 171.04186161 214.58384975 168.61137199 212.11834168 C166.06328647 209.53887829 163.50091663 206.97368309 160.94006348 204.40690613 C156.09948512 199.55082283 151.27178769 194.68214239 146.44864893 189.80874413 C140.95427548 184.25837278 135.44560025 178.72228924 129.93570995 173.18732798 C118.60787853 161.8073143 107.29803688 150.40959582 96 139 C92.7655694 140.42019268 90.63134351 142.13002331 88.15606689 144.6370697 C87.40485565 145.39275742 86.65364441 146.14844513 85.87966919 146.92703247 C85.06505219 147.75669525 84.25043518 148.58635803 83.41113281 149.44116211 C82.5455777 150.31445663 81.68002258 151.18775116 80.78823853 152.08750916 C78.90799816 153.98541208 77.0296311 155.88498734 75.15396881 157.78739738 C72.18420869 160.79858828 69.20516747 163.80047963 66.2243042 166.80067444 C57.74981604 175.33268484 49.2853554 183.87455578 40.8359375 192.43139648 C36.16760121 197.15892338 31.49026567 201.87735539 26.80299258 206.58610922 C23.84116649 209.56252896 20.89073435 212.54965615 17.94834185 215.54528224 C15.67789267 217.85013721 13.39090361 220.13848576 11.10644531 222.42944336 C10.29992523 223.25708191 9.49340515 224.08472046 8.66244507 224.93743896 C3.61462539 229.95889048 -1.06919519 234.00748225 -8.57421875 233.99609375 C-13.8779617 232.59418018 -18.0552878 231.23629465 -21.03515625 226.27734375 C-23.09549208 221.79098477 -23.39466197 218.08103984 -21.98143864 213.34183502 C-18.85377025 205.87882807 -10.95725422 199.81766891 -5.31079102 194.19726562 C-4.47096176 193.35729034 -3.63113251 192.51731506 -2.76585388 191.65188599 C-0.01423734 188.9009611 2.74089462 186.15358632 5.49609375 183.40625 C7.41472856 181.49004105 9.33260686 179.57307562 11.25050354 177.65612793 C15.76733977 173.14238616 20.28671649 168.63119715 24.80703646 164.1209445 C29.95782445 158.98137654 35.1057359 153.83893142 40.25342071 148.69625568 C50.83244076 138.12765727 61.41502554 127.56263503 72 117 C70.57980732 113.7655694 68.86997669 111.63134351 66.3629303 109.15606689 C65.60724258 108.40485565 64.85155487 107.65364441 64.07296753 106.87966919 C63.24330475 106.06505219 62.41364197 105.25043518 61.55883789 104.41113281 C60.68554337 103.5455777 59.81224884 102.68002258 58.91249084 101.78823853 C57.01458792 99.90799816 55.11501266 98.0296311 53.21260262 96.15396881 C50.20141172 93.18420869 47.19952037 90.20516747 44.19932556 87.2243042 C35.66731516 78.74981604 27.12544422 70.2853554 18.56860352 61.8359375 C13.84107662 57.16760121 9.12264461 52.49026567 4.41389078 47.80299258 C1.43747104 44.84116649 -1.54965615 41.89073435 -4.54528224 38.94834185 C-6.85013721 36.67789267 -9.13848576 34.39090361 -11.42944336 32.10644531 C-12.67090118 30.89666519 -12.67090118 30.89666519 -13.93743896 29.66244507 C-18.95889048 24.61462539 -23.00748225 19.93080481 -22.99609375 12.42578125 C-21.59418018 7.1220383 -20.23629465 2.9447122 -15.27734375 -0.03515625 C-9.85096139 -2.52719268 -5.45625758 -2.28666065 0 0 Z " fill="#D9BA27" transform="translate(161,140)"/>
</svg>
