<?xml version="1.0" encoding="UTF-8"?>
<svg version="1.1" xmlns="http://www.w3.org/2000/svg" width="512" height="512">
<path d="M0 0 C1.67647639 -0.00346218 3.3529505 -0.00823048 5.0294199 -0.01418173 C9.60824205 -0.02664447 14.18687535 -0.02054298 18.76569796 -0.01122308 C23.71465074 -0.00441347 28.66357188 -0.01492327 33.61251831 -0.02316284 C43.29645798 -0.036482 52.98032778 -0.03363053 62.66427016 -0.02492492 C70.53669415 -0.01814163 78.40909859 -0.01723445 86.28152466 -0.02049637 C87.96408382 -0.02118592 87.96408382 -0.02118592 89.68063408 -0.0218894 C91.9595689 -0.0228486 94.23850372 -0.02382124 96.51743853 -0.02480717 C117.8721851 -0.03335574 139.22689299 -0.02353529 160.58163321 -0.00740607 C178.89322731 0.00599662 197.20476435 0.00366838 215.51635742 -0.01016235 C236.79623701 -0.02622757 258.07608272 -0.03253182 279.35596752 -0.02332556 C281.62638028 -0.02236994 283.89679304 -0.02142683 286.16720581 -0.02049637 C287.28420618 -0.02003354 288.40120655 -0.01957072 289.55205542 -0.01909386 C297.41232624 -0.0165068 305.27257553 -0.02086885 313.13284302 -0.02793503 C322.71573682 -0.03636068 332.29855692 -0.03404747 341.88144231 -0.0180928 C346.76799655 -0.01022445 351.65442804 -0.00709398 356.54098129 -0.01704025 C361.01923957 -0.02601741 365.49726198 -0.02100476 369.97549903 -0.0051076 C371.59041483 -0.00177255 373.20535079 -0.00342493 374.82025349 -0.01073496 C393.86956973 -0.09031006 411.30548848 4.62693397 425.22436523 18.38095093 C437.30091987 32.04807618 442.54798581 46.28044993 442.48506165 64.24688721 C442.48888719 65.41471178 442.49271274 66.58253636 442.49665421 67.78574955 C442.50514959 71.00507649 442.50476506 74.22425643 442.50047362 77.44358706 C442.49799741 80.92425644 442.50703162 84.40489948 442.51451111 87.88555908 C442.5272353 94.69598274 442.52905465 101.50636692 442.52671085 108.31680046 C442.52492499 113.8547302 442.52668306 119.39264801 442.53093529 124.93057632 C442.53153048 125.71993428 442.53212567 126.50929223 442.53273889 127.32257012 C442.53395069 128.92635527 442.53516483 130.53014042 442.53638127 132.13392557 C442.547248 147.16120427 442.54509841 162.1884605 442.53899642 177.21574046 C442.53382792 190.94913411 442.54508248 204.68245682 442.56409464 218.41583644 C442.58348816 232.53342611 442.59172639 246.65098225 442.58797139 260.76858532 C442.58606166 268.68807188 442.58852466 276.60749806 442.60268593 284.52697372 C442.61462001 291.26888615 442.61598195 298.01070103 442.60389576 304.75261484 C442.59802128 308.1889557 442.5968677 311.62511832 442.60889816 315.06144714 C442.61937242 318.79481142 442.61125872 322.52769997 442.59858704 326.26104736 C442.60596132 327.33567824 442.61333561 328.41030912 442.62093335 329.51750457 C442.50870327 345.28712442 436.47264763 359.89949317 425.45874023 371.20907593 C424.35272461 372.28415405 424.35272461 372.28415405 423.22436523 373.38095093 C422.30397461 374.33227905 422.30397461 374.33227905 421.36499023 375.30282593 C407.91114747 388.29670825 390.34605709 390.84173318 372.46891785 390.76863098 C370.794579 390.77281046 369.120243 390.77829133 367.44591218 390.78495079 C362.8728875 390.79934367 358.30004399 390.79518002 353.72700965 390.78778398 C348.78413021 390.78303927 343.84128922 390.7955737 338.89842224 390.80580139 C329.22551206 390.82296956 319.5526669 390.82383347 309.87974545 390.81858849 C302.0144974 390.81454166 294.14926852 390.81599644 286.28402138 390.82133675 C285.16318144 390.82208517 284.0423415 390.82283359 282.88753671 390.82360469 C280.61029908 390.82513622 278.33306146 390.82667457 276.05582384 390.82821966 C254.71529566 390.84193768 233.37480416 390.83651204 212.03427682 390.82503445 C192.52915985 390.81510409 173.02413776 390.8280406 153.51903542 390.85196864 C133.47102322 390.87637659 113.42305519 390.88596325 93.37502843 390.87931591 C82.12768342 390.87582731 70.88041136 390.87803204 59.63307762 390.89556694 C50.05794028 390.91031017 40.48292725 390.91089668 30.90779229 390.89349603 C26.02690552 390.88500093 21.14624063 390.88279997 16.2653656 390.89814758 C11.78874169 390.91204924 7.3125286 390.90716162 2.83592812 390.88790835 C1.22499542 390.88416474 -0.38597063 390.88702249 -1.99687348 390.89752 C-20.6358844 391.01025017 -36.64338587 386.86756068 -50.50219727 373.64266968 C-51.25243164 372.89630249 -52.00266602 372.1499353 -52.77563477 371.38095093 C-53.71536133 370.4934314 -53.71536133 370.4934314 -54.67407227 369.58798218 C-58.77459367 365.38541159 -61.43812537 360.63130318 -64.08813477 355.44345093 C-64.42603027 354.78723755 -64.76392578 354.13102417 -65.11206055 353.45492554 C-69.40144893 344.66439416 -70.07023915 336.19659649 -70.03633118 326.51501465 C-70.04015672 325.34719007 -70.04398227 324.1793655 -70.04792374 322.9761523 C-70.05641912 319.75682537 -70.05603459 316.53764543 -70.05174315 313.31831479 C-70.04926694 309.83764541 -70.05830115 306.35700238 -70.06578064 302.87634277 C-70.07850483 296.06591912 -70.08032419 289.25553494 -70.07798038 282.4451014 C-70.07619452 276.90717165 -70.07795259 271.36925385 -70.08220482 265.83132553 C-70.08280001 265.04196758 -70.0833952 264.25260962 -70.08400842 263.43933173 C-70.08522022 261.83554658 -70.08643436 260.23176143 -70.0876508 258.62797628 C-70.09851753 243.60069759 -70.09636794 228.57344135 -70.09026595 213.5461614 C-70.08509745 199.81276775 -70.09635201 186.07944504 -70.11536417 172.34606542 C-70.13475769 158.22847574 -70.14299592 144.11091961 -70.13924092 129.99331653 C-70.13733119 122.07382997 -70.1397942 114.15440379 -70.15395546 106.23492813 C-70.16588954 99.49301571 -70.16725148 92.75120083 -70.15516529 86.00928701 C-70.14929081 82.57294615 -70.14813723 79.13678353 -70.16016769 75.70045471 C-70.17064196 71.96709043 -70.16252825 68.23420189 -70.14985657 64.50085449 C-70.15723085 63.42622361 -70.16460514 62.35159273 -70.17220289 61.24439728 C-70.05997281 45.47477744 -64.02391716 30.86240869 -53.01000977 19.55282593 C-52.27266602 18.83610718 -51.53532227 18.11938843 -50.77563477 17.38095093 C-50.16204102 16.74673218 -49.54844727 16.11251343 -48.91625977 15.45907593 C-35.45520093 2.45822423 -17.88565469 -0.08096139 0 0 Z M-32.15063477 40.63095093 C-37.91621697 47.61953542 -40.89324297 55.1366973 -40.90706253 64.21618176 C-40.91090368 65.16745361 -40.91474482 66.11872546 -40.91870236 67.09882373 C-40.91783588 68.13577626 -40.9169694 69.17272879 -40.91607666 70.24110413 C-40.91904778 71.34904683 -40.9220189 72.45698954 -40.92508006 73.59850627 C-40.93376564 77.31855729 -40.9352752 81.03857612 -40.93676758 84.75863647 C-40.94139585 87.42291923 -40.94640001 90.08719906 -40.95181274 92.7514801 C-40.96538271 99.99542442 -40.97141875 107.23936318 -40.9758234 114.48331809 C-40.97858819 119.00869918 -40.98282599 123.53407813 -40.98732758 128.05945778 C-40.9995187 140.59519536 -41.00981819 153.13093124 -41.01320267 165.66667461 C-41.01342223 166.46867365 -41.0136418 167.27067268 -41.01386802 168.09697472 C-41.0140863 168.90086548 -41.01430457 169.70475624 -41.01452947 170.53300732 C-41.01497293 172.16192798 -41.01541949 173.79084863 -41.01586914 175.41976929 C-41.01609057 176.22776589 -41.016312 177.0357625 -41.01654014 177.86824385 C-41.02048679 190.95591214 -41.03793745 204.04352471 -41.06122866 217.13117149 C-41.08496235 230.57626783 -41.09740544 244.02133623 -41.09857059 257.46645385 C-41.09948623 265.012062 -41.10521069 272.55759754 -41.1233902 280.10318565 C-41.13881847 286.52937923 -41.14389563 292.95547777 -41.1356521 299.38168635 C-41.13175513 302.65789811 -41.13427266 305.93387934 -41.14670944 309.21007538 C-41.15942492 312.76884052 -41.1535537 316.32711756 -41.14312744 319.88587952 C-41.15118385 320.91167844 -41.15924025 321.93747736 -41.16754079 322.9943611 C-41.09420871 333.72525162 -38.43093637 343.32965446 -30.99047852 351.29110718 C-22.40027034 359.33482099 -13.47197338 361.50262852 -1.85145855 361.50958538 C-1.18791187 361.51133842 -0.52436518 361.51309146 0.15928897 361.51489761 C2.37446845 361.51953574 4.58958165 361.51709779 6.80476379 361.5146637 C8.41235094 361.51653277 10.01993763 361.51883386 11.6275236 361.52152902 C16.039021 361.52764148 20.45049944 361.52751408 24.86200011 361.52633464 C29.62217032 361.5261305 34.38233445 361.5316507 39.14250183 361.53639221 C48.46615072 361.54469619 57.78979328 361.54744694 67.11344556 361.54800459 C74.69233241 361.54847985 82.27121718 361.55053511 89.85010338 361.55370522 C111.33972684 361.56251095 132.82934532 361.5671247 154.3189706 361.56637474 C155.47731382 361.56633479 156.63565703 361.56629483 157.82910156 361.56625366 C158.98885971 361.56621278 160.14861785 361.5661719 161.34352019 361.56612978 C180.14098705 361.56572329 198.93843389 361.57529383 217.73589496 361.58939203 C237.03903811 361.60375522 256.34217149 361.61066225 275.64532012 361.60979825 C286.48175921 361.60946627 297.31817731 361.61221383 308.15461159 361.6229763 C317.38047119 361.63208052 326.60630027 361.63425717 335.83216242 361.62746688 C340.53816551 361.62420135 345.24411005 361.62414624 349.95010757 361.63282013 C354.26125598 361.64068446 358.57229938 361.63925436 362.88344523 361.630536 C364.43993167 361.62900087 365.99642595 361.63081764 367.55290315 361.63639607 C381.50077536 361.68305975 393.41595869 360.96623192 404.03686523 351.06845093 C412.03993129 342.52814201 413.52621079 332.51156137 413.48506165 321.24232483 C413.48888719 320.12858972 413.49271274 319.01485461 413.49665421 317.86736995 C413.50696354 314.13967104 413.50299591 310.41212675 413.49902344 306.68441772 C413.50337108 304.00998424 413.50849006 301.33556204 413.51451111 298.66113281 C413.52724781 292.15290035 413.52905304 285.64470917 413.52671085 279.13646635 C413.52492618 273.84447542 413.52668051 268.55249701 413.53093529 263.26050758 C413.53182807 262.12975064 413.53182807 262.12975064 413.53273889 260.97615013 C413.53395067 259.44459718 413.53516481 257.91304423 413.53638127 256.38149128 C413.54725308 242.02428607 413.54509616 227.66710435 413.53899642 213.30989782 C413.53382899 200.18678687 413.54507873 187.0637502 413.56409464 173.94065394 C413.58348583 160.45480903 413.59172671 146.96899923 413.58797139 133.48314029 C413.58606111 125.9163292 413.58852992 118.3495813 413.60268593 110.7827816 C413.61461712 104.34016063 413.61598528 97.89764174 413.60389576 91.45501932 C413.59801886 88.17069798 413.59851106 84.88660109 413.60889816 81.60228539 C413.61936563 78.03486081 413.61126419 74.46793477 413.59858704 70.90052795 C413.60596132 69.87220232 413.61333561 68.84387669 413.62093335 67.78438967 C413.53563717 56.3442397 410.36473009 47.13836225 402.63061523 38.62704468 C394.49627685 30.9723253 384.16084585 29.25883338 373.33142376 29.25231647 C372.67125382 29.25056344 372.01108389 29.2488104 371.33090881 29.24700424 C369.12721602 29.24236647 366.92358987 29.24480397 364.71989441 29.24723816 C363.12055686 29.24536907 361.52121977 29.24306797 359.9218834 29.24037284 C355.53318912 29.2342606 351.14451391 29.23438775 346.75581634 29.23556721 C342.02018622 29.23577136 337.28456221 29.2302511 332.54893494 29.22550964 C323.27341298 29.21720579 313.99789738 29.21445493 304.72237202 29.21389727 C297.18257746 29.213422 289.642785 29.21136672 282.1029911 29.20819664 C260.72404269 29.19939094 239.34509929 29.19477716 217.96614905 29.19552711 C216.23759521 29.19558705 216.23759521 29.19558705 214.47412109 29.19564819 C213.32034418 29.19568907 212.16656726 29.19572995 210.97782741 29.19577207 C192.2773584 29.19617856 173.57690952 29.18660805 154.87644633 29.17250983 C135.67274426 29.1581465 116.46905202 29.15123961 97.26534444 29.1521036 C86.48479666 29.15243558 75.70426998 29.14968823 64.92372704 29.13892555 C55.74544453 29.12982115 46.5671927 29.12764483 37.38890763 29.13443498 C32.70720763 29.13770042 28.02556648 29.13775595 23.34387207 29.12908173 C19.05492855 29.12121699 14.76609058 29.12264791 10.47714964 29.13136586 C8.92873851 29.13290089 7.38031951 29.13108455 5.83191767 29.12550578 C-8.34329886 29.07783158 -21.86088671 29.71238493 -32.15063477 40.63095093 Z " fill="#D9BA27" transform="translate(69.775634765625,60.619049072265625)"/>
<path d="M0 0 C4.48565466 2.88802423 8.2492819 6.2794222 11.921875 10.12890625 C14.31799904 12.58439372 16.90042722 14.79067465 19.49609375 17.03125 C24.47702756 21.35466452 29.33947381 25.8141309 34.234375 30.234375 C37.9992585 33.62969938 41.76818551 37.01683342 45.59375 40.34375 C49.78928221 43.99682956 53.88998553 47.75130549 58 51.5 C60.19977741 53.49273953 62.41580218 55.4596314 64.65625 57.40625 C68.83354083 61.03569941 72.91162239 64.7710402 77 68.5 C79.19977741 70.49273953 81.41580218 72.4596314 83.65625 74.40625 C87.83354083 78.03569941 91.91162239 81.7710402 96 85.5 C98.19977741 87.49273953 100.41580218 89.4596314 102.65625 91.40625 C106.83354083 95.03569941 110.91162239 98.7710402 115 102.5 C117.19977741 104.49273953 119.41580218 106.4596314 121.65625 108.40625 C125.83493079 112.03690708 129.91441304 115.77343576 134.00390625 119.50390625 C136.18085996 121.47566844 138.37463674 123.41990337 140.59375 125.34375 C144.0031358 128.3050851 147.3341931 131.34777486 150.65625 134.40625 C154.60196368 138.03851055 158.58082183 141.6232838 162.6328125 145.13671875 C166.68309072 148.67875742 170.66430038 152.29877094 174.65625 155.90625 C178.10730456 154.40133808 180.52349097 152.39041021 183.28125 149.84375 C184.16039062 149.03808594 185.03953125 148.23242188 185.9453125 147.40234375 C186.83992187 146.57863281 187.73453125 145.75492188 188.65625 144.90625 C190.32086506 143.40397356 191.9874909 141.90392181 193.65625 140.40625 C196.18125493 138.1345371 198.70538304 135.86189586 201.2265625 133.5859375 C204.97189256 130.20712292 208.72143207 126.83729035 212.53125 123.53125 C216.497999 120.07841181 220.36307669 116.51747619 224.23168945 112.95581055 C227.64223806 109.82107948 231.09784116 106.74898698 234.59765625 103.71484375 C237.1458165 101.4761375 239.65035593 99.19214788 242.15625 96.90625 C245.27532011 94.06100772 248.40380391 91.2342542 251.59375 88.46875 C255.00313518 85.50741544 258.33421376 82.46474695 261.65625 79.40625 C265.5891228 75.78537455 269.55838942 72.21666136 273.59765625 68.71484375 C276.1458165 66.4761375 278.65035593 64.19214788 281.15625 61.90625 C284.27532011 59.06100772 287.40380391 56.2342542 290.59375 53.46875 C294.00313518 50.50741544 297.33421376 47.46474695 300.65625 44.40625 C304.5891228 40.78537455 308.55838942 37.21666136 312.59765625 33.71484375 C315.1458165 31.4761375 317.65035593 29.19214788 320.15625 26.90625 C323.893341 23.4972438 327.66466603 20.13929694 331.48828125 16.828125 C333.21628709 15.29627117 334.91568886 13.74521086 336.60546875 12.171875 C337.12955322 11.68517334 337.6536377 11.19847168 338.19360352 10.69702148 C339.22224279 9.73924649 340.24768824 8.77802517 341.26928711 7.81274414 C347.20946036 2.28656185 352.26019389 -1.47472672 360.59375 -1.3828125 C365.05973133 -0.75689845 368.84141869 2.49882262 371.65625 5.90625 C372.60121268 8.74113805 372.8824499 10.76183617 372.96875 13.71875 C373.00613281 14.55019531 373.04351562 15.38164062 373.08203125 16.23828125 C372.06531532 22.60907922 366.99822498 26.75259666 362.40625 30.84375 C361.82560791 31.37025146 361.24496582 31.89675293 360.64672852 32.43920898 C357.05037103 35.69081324 353.41352123 38.89520574 349.74609375 42.06640625 C347.01254401 44.47295191 344.33512646 46.93929949 341.65625 49.40625 C337.72342596 53.02717721 333.75410918 56.59583986 329.71484375 60.09765625 C327.1666835 62.3363625 324.66214407 64.62035212 322.15625 66.90625 C319.03717989 69.75149228 315.90869609 72.5782458 312.71875 75.34375 C309.3093642 78.3050851 305.9783069 81.34777486 302.65625 84.40625 C298.69762814 88.05039329 294.7044824 91.64538717 290.640625 95.171875 C286.60250309 98.70125714 282.63710319 102.31259226 278.65625 105.90625 C276.15937008 108.15421977 273.66171849 110.40133007 271.1640625 112.6484375 C269.47032106 114.17333244 267.77763831 115.69940402 266.0859375 117.2265625 C259.04538948 123.57812723 251.97119469 129.87142063 244.65625 135.90625 C250.42198408 142.85469877 256.59822493 149.34809345 263.46875 155.21875 C267.0452384 158.28125205 270.35014493 161.55905616 273.65625 164.90625 C276.90076281 168.19093632 280.1354741 171.41359049 283.65625 174.40625 C287.74499765 177.8816855 291.46441684 181.68725237 295.23217773 185.50170898 C298.5620733 188.85685894 301.99556399 192.00350452 305.59765625 195.06640625 C308.72855281 197.86460792 311.64454695 200.87398656 314.59228516 203.86181641 C317.17647318 206.46745739 319.79834158 208.96678109 322.59375 211.34375 C326.133041 214.35977827 329.39119445 217.60072901 332.65625 220.90625 C335.90076876 224.19092991 339.13547358 227.41359004 342.65625 230.40625 C346.74054465 233.87790045 350.4581166 237.67755359 354.21899414 241.49072266 C357.08350677 244.38029465 359.99190073 247.14262586 363.09375 249.78125 C368.42896445 254.39548952 372.29255406 258.40342437 373.56640625 265.59765625 C373.71853225 269.50663305 372.6955757 272.59234573 370.65625 275.90625 C366.81481095 279.56030178 364.15173843 281.06774351 358.90625 281.21875 C358.06578125 281.25613281 357.2253125 281.29351562 356.359375 281.33203125 C350.43576807 280.39897756 346.16058145 275.72513024 341.90625 271.78125 C341.1313623 271.06437012 341.1313623 271.06437012 340.34082031 270.33300781 C336.10133919 266.38500728 332.01938218 262.28989896 327.94921875 258.16796875 C325.93121084 256.1774635 323.87315865 254.30851885 321.71875 252.46875 C318.36699881 249.60452626 315.25068922 246.54290531 312.15625 243.40625 C309.10287382 240.31133128 306.03301292 237.28690703 302.71875 234.46875 C299.179459 231.45272173 295.92130555 228.21177099 292.65625 224.90625 C289.41173124 221.62157009 286.17702642 218.39890996 282.65625 215.40625 C278.5667138 211.93014423 274.8466446 208.12375344 271.078125 204.30859375 C268.35316999 201.56299514 265.60601527 198.91355048 262.65625 196.40625 C258.5667138 192.93014423 254.8466446 189.12375344 251.078125 185.30859375 C247.77352823 181.97896215 244.36918888 178.85758943 240.7890625 175.82421875 C237.38573448 172.76371682 234.21155522 169.46961921 231.04296875 166.16796875 C227.82388769 162.87121549 224.57237176 160.34075299 220.65625 157.90625 C219.955 158.54691406 219.25375 159.18757812 218.53125 159.84765625 C213.67052376 164.27910639 208.79214815 168.68140304 203.8203125 172.98828125 C201.57471987 174.97850866 199.3761871 177.01573623 197.17919922 179.05932617 C183.67435146 191.59716527 183.67435146 191.59716527 176.40625 192.15625 C169.06378702 191.66675247 165.32139953 188.95152523 160.45703125 183.78515625 C158.68502304 181.93627132 156.84582204 180.26470514 154.90625 178.59375 C151.58476782 175.73018089 148.3311557 172.80214536 145.09375 169.84375 C141.01011482 166.11842822 136.87928826 162.47237119 132.65625 158.90625 C128.94356906 160.44752351 126.67509302 162.71468234 123.90625 165.59375 C120.26252121 169.31761945 116.54220768 172.81103319 112.5859375 176.1953125 C109.81654838 178.65076277 107.25589876 181.29721339 104.66015625 183.93359375 C102.07378849 186.47962829 99.3408972 188.82646557 96.58984375 191.19140625 C94.70130403 192.86629299 92.92469352 194.60572587 91.15625 196.40625 C88.76571833 198.84014732 86.30578738 201.11980559 83.71875 203.34375 C80.91048653 205.76242779 78.25654407 208.26524683 75.65625 210.90625 C72.4346645 214.17827128 69.07032855 217.19941055 65.58984375 220.19140625 C63.70130403 221.86629299 61.92469352 223.60572587 60.15625 225.40625 C57.76571833 227.84014732 55.30578738 230.11980559 52.71875 232.34375 C49.91048653 234.76242779 47.25654407 237.26524683 44.65625 239.90625 C41.4346645 243.17827128 38.07032855 246.19941055 34.58984375 249.19140625 C32.70130403 250.86629299 30.92469352 252.60572587 29.15625 254.40625 C26.13845005 257.47879462 22.95191336 260.2837038 19.6875 263.08984375 C17.60536107 264.95175645 15.66437177 266.90272283 13.71875 268.90625 C2.26098451 280.52252212 2.26098451 280.52252212 -6.09375 281.21875 C-10.86172502 281.14850359 -13.49634886 279.6975018 -17.34375 276.90625 C-20.37342488 273.16965098 -21.09280102 269.67428064 -21.34375 264.90625 C-19.81785144 255.94159598 -10.78241204 249.23762501 -4.40625 243.34375 C-3.66898682 242.65611572 -2.93172363 241.96848145 -2.17211914 241.26000977 C-0.64510414 239.83591398 0.88330047 238.41330679 2.41308594 236.9921875 C5.1988712 234.40166189 7.97322177 231.79912532 10.74658203 229.1953125 C12.72567755 227.3372461 14.70636047 225.48088668 16.6875 223.625 C19.35498789 221.12587426 22.02163649 218.62585842 24.6875 216.125 C31.78752937 209.46490952 38.89527276 202.81326925 46.01416016 196.17333984 C53.24081457 189.4311116 60.44820734 182.66836252 67.65625 175.90625 C72.32714565 171.52432228 76.99882186 167.1432333 81.67285156 162.76464844 C83.00586145 161.51564902 84.33853859 160.26629439 85.67089844 159.01660156 C92.91844058 152.22004891 100.16883302 145.43998515 107.65625 138.90625 C106.35608484 136.00993126 105.02114577 134.05430694 102.6796875 131.91796875 C102.09541992 131.38010742 101.51115234 130.84224609 100.90917969 130.28808594 C100.28946289 129.72895508 99.66974609 129.16982422 99.03125 128.59375 C98.39606445 128.01270508 97.76087891 127.43166016 97.10644531 126.83300781 C93.30312566 123.36396051 89.46596726 119.93549512 85.5703125 116.5703125 C80.67446976 112.31392677 75.89273699 107.92586553 71.078125 103.578125 C67.3132415 100.18280062 63.54431449 96.79566658 59.71875 93.46875 C55.52460635 89.81687947 51.42530708 86.06358816 47.31640625 82.31640625 C44.46597966 79.73386116 41.57799108 77.19969897 38.67578125 74.67578125 C33.75888444 70.36755252 28.92985968 65.95938844 24.078125 61.578125 C20.3132415 58.18280062 16.54431449 54.79566658 12.71875 51.46875 C9.49065488 48.65802475 6.31886557 45.790451 3.15625 42.90625 C-0.02815968 40.00255963 -3.22149821 37.11450953 -6.46875 34.28125 C-7.09265625 33.73597656 -7.7165625 33.19070312 -8.359375 32.62890625 C-9.82219261 31.35901931 -11.29200264 30.09717638 -12.765625 28.83984375 C-13.57515625 28.13988281 -14.3846875 27.43992188 -15.21875 26.71875 C-15.95867187 26.08582031 -16.69859375 25.45289063 -17.4609375 24.80078125 C-20.84255818 21.39811314 -21.69598885 18.40408247 -21.90625 13.65625 C-21.83076295 8.02491639 -20.0214296 5.32566929 -16.16796875 1.3671875 C-11.6574723 -2.24507304 -5.11498233 -2.38699175 0 0 Z " fill="#D9BA27" transform="translate(80.34375,116.09375)"/>
</svg>
