<?xml version="1.0" encoding="UTF-8"?>
<svg version="1.1" xmlns="http://www.w3.org/2000/svg" width="512" height="512">
<path d="M0 0 C12.51015725 10.66937697 20.52344616 25.36727184 22.2109375 41.8046875 C22.26507813 42.48789063 22.31921875 43.17109375 22.375 43.875 C22.42914063 44.51695313 22.48328125 45.15890625 22.5390625 45.8203125 C23.23554562 62.47259083 17.30827028 78.90027861 6.25 91.3125 C-2.49805982 100.52098403 -13.2945003 106.787781 -25.625 109.875 C-26.36492187 110.06578125 -27.10484375 110.2565625 -27.8671875 110.453125 C-45.50395613 113.15110094 -62.52805232 110.1850771 -77.3203125 100.0234375 C-91.85855811 88.86411136 -100.68642746 74.6016933 -103.23046875 56.42578125 C-105.17275438 38.94521062 -100.51937839 22.72045154 -89.625 8.875 C-89.18800781 8.26269531 -88.75101563 7.65039062 -88.30078125 7.01953125 C-81.15614826 -2.35645859 -69.55638087 -8.41891931 -58.625 -12.125 C-57.92632812 -12.36992187 -57.22765625 -12.61484375 -56.5078125 -12.8671875 C-36.75552705 -18.47775885 -15.79717813 -12.0995007 0 0 Z M-66.625 22.875 C-73.40278536 30.90793079 -77.42822324 40.62432168 -76.93359375 51.19140625 C-75.75469099 61.44338344 -71.29911376 70.01147392 -63.3828125 76.796875 C-54.41581236 83.06446679 -45.01767231 85.84516122 -34.125 84.25 C-24.43374951 82.23042472 -16.20345883 76.72875141 -10.4375 68.6875 C-5.41862958 60.71790262 -3.43657913 52.25177125 -4.625 42.875 C-7.7574879 30.8269696 -14.06653015 23.10873895 -24.24609375 16.20703125 C-37.91157581 8.55525887 -55.66055354 12.2886379 -66.625 22.875 Z " fill="#D9BA27" transform="translate(296.625,22.125)"/>
<path d="M0 0 C0.70382813 0.55042969 1.40765625 1.10085937 2.1328125 1.66796875 C3.1434375 2.38984375 4.1540625 3.11171875 5.1953125 3.85546875 C17.88014707 14.84658962 24.08959701 30.82069852 25.41796875 47.1796875 C25.87673114 64.99163591 20.27359115 80.70132277 8.58203125 94.19921875 C-2.52300431 105.39281121 -17.15886663 112.42127662 -32.8671875 113.66796875 C-33.50527344 113.72082031 -34.14335938 113.77367187 -34.80078125 113.828125 C-51.58286161 114.55778067 -68.03610002 108.54283615 -80.4296875 97.29296875 C-91.63581771 86.53856426 -99.51372635 72.3186532 -100.203125 56.56640625 C-100.53192193 36.59783208 -96.44926718 20.91184271 -82.3125 5.984375 C-59.83322881 -15.30988669 -25.26950575 -19.05369485 0 0 Z M-65.1796875 27.04296875 C-72.24783359 35.97115329 -74.65477987 45.48574851 -73.3984375 56.75 C-71.73456005 65.88909157 -66.54251606 74.00446502 -59.25 79.71875 C-50.43614458 85.61499954 -42.48279555 87.85068595 -31.8671875 86.66796875 C-20.98966961 83.86180057 -11.45354564 77.92630286 -5.5546875 68.16796875 C-1.30228743 59.34817602 0.25282911 48.78328629 -3.0546875 39.29296875 C-3.61766057 38.06490192 -4.22299914 36.8554485 -4.8671875 35.66796875 C-5.21910156 35.00410156 -5.57101563 34.34023437 -5.93359375 33.65625 C-11.6161221 23.81028504 -19.00087887 18.3881178 -29.87890625 15.05078125 C-43.23923475 12.47845867 -56.0869729 17.06149257 -65.1796875 27.04296875 Z " fill="#D9BA27" transform="translate(99.8671875,205.33203125)"/>
<path d="M0 0 C16.78208036 -0.72965567 33.23531877 5.28528885 45.62890625 16.53515625 C56.83503646 27.28956074 64.7129451 41.5094718 65.40234375 57.26171875 C65.72107538 76.72711481 62.05815832 92.35048824 48.37670898 106.94604492 C35.95495481 119.64787903 19.97338083 125.95899881 2.31640625 126.47265625 C-12.46287286 125.80087084 -25.28455041 121.27030553 -36.93359375 112.16015625 C-37.94421875 111.43828125 -38.95484375 110.71640625 -39.99609375 109.97265625 C-52.73138789 98.93781332 -58.73068267 83.08411557 -60.25390625 66.71875 C-60.83047992 49.82514138 -55.16433345 33.48462208 -44.26171875 20.54296875 C-32.12069411 8.11675226 -17.12180201 1.41816946 0 0 Z M-26.93359375 42.16015625 C-33.17806051 50.87921045 -33.70721158 59.72840333 -32.93359375 70.16015625 C-32.32089022 73.10400523 -31.36391359 75.52354257 -29.93359375 78.16015625 C-29.58167969 78.82402344 -29.22976563 79.48789062 -28.8671875 80.171875 C-23.18465915 90.01783996 -15.79990238 95.4400072 -4.921875 98.77734375 C5.26772745 100.73919255 14.73065291 98.59382211 23.31640625 92.97265625 C31.2154879 87.06691652 36.66621427 79.07480295 38.63671875 69.34375 C39.86611203 59.312424 38.18433817 50.76481448 32.50390625 42.34765625 C26.12317058 34.26383574 18.29339988 28.90622833 8.06640625 27.16015625 C-6.03761442 25.52015385 -17.82456123 31.63268557 -26.93359375 42.16015625 Z " fill="#D9BA27" transform="translate(446.93359375,192.83984375)"/>
<path d="M0 0 C13.63101071 11.57206084 20.9739254 27.10390032 22.91796875 44.74609375 C24.20938601 60.83500047 18.87289811 76.23255404 8.91796875 88.74609375 C8.10005859 89.80957031 8.10005859 89.80957031 7.265625 90.89453125 C-2.13542147 102.44122833 -16.46447242 109.57682132 -31.08203125 111.74609375 C-49.71243124 113.42763415 -65.74916522 109.07774183 -80.70703125 97.62109375 C-93.2171885 86.95171678 -101.23047741 72.25382191 -102.91796875 55.81640625 C-102.97210938 55.13320313 -103.02625 54.45 -103.08203125 53.74609375 C-103.13617188 53.10414063 -103.1903125 52.4621875 -103.24609375 51.80078125 C-103.94530227 35.08334123 -97.99117105 18.65022046 -86.83203125 6.24609375 C-63.33145635 -18.30656311 -26.78211354 -19.58590559 0 0 Z M-64.26953125 21.99609375 C-72.01409442 29.56855551 -76.04197662 38.35388704 -76.51953125 49.18359375 C-76.23284568 58.82168952 -72.16729702 67.07721858 -65.89453125 74.24609375 C-56.69725666 82.42144894 -48.56856674 85.44974647 -36.20703125 85.12890625 C-27.8092807 84.58849545 -19.87830015 80.81195655 -14.08203125 74.74609375 C-7.03563935 66.20501266 -3.34805131 57.77926486 -3.7421875 46.6015625 C-4.92116085 36.69547606 -8.89432189 28.66303324 -16.08203125 21.74609375 C-32.01347963 9.89584974 -48.43210195 10.81673189 -64.26953125 21.99609375 Z " fill="#D9BA27" transform="translate(296.08203125,392.25390625)"/>
<path d="M0 0 C12.27427985 11.43100871 19.57700962 27.27064205 20.4921875 44.0390625 C20.94830361 60.99584969 15.20822239 77.66624445 3.53393555 90.12817383 C-8.85855079 102.7776324 -24.94087931 109.58996672 -42.62890625 110.0703125 C-60.31693319 109.58996672 -76.39926171 102.7776324 -88.79174805 90.12817383 C-100.1803927 77.97115839 -106.3713464 61.19583731 -105.8671875 44.55859375 C-104.36882498 27.33970648 -98.20051187 12.83728846 -85.62890625 0.8203125 C-85.11328125 0.27375 -84.59765625 -0.2728125 -84.06640625 -0.8359375 C-60.91056065 -23.50936965 -23.32941388 -19.34296129 0 0 Z M-70.44140625 23.6328125 C-77.30242204 31.94244183 -79.46244246 41.23131541 -78.62890625 51.8203125 C-76.66318494 62.71507297 -70.66684023 71.49375871 -61.62890625 77.8203125 C-52.40728118 82.89374837 -42.83654395 84.41481937 -32.56640625 81.6953125 C-23.1123839 78.50939588 -15.17935074 72.27370401 -10.34375 63.484375 C-5.91319811 53.92454618 -5.20342248 44.32622481 -8.59375 34.265625 C-12.51766172 24.99630902 -19.1570111 17.69028135 -28.31640625 13.4453125 C-43.72269861 7.31423697 -59.23510572 11.66352981 -70.44140625 23.6328125 Z " fill="#D9BA27" transform="translate(298.62890625,209.1796875)"/>
<path d="M0 0 C12.50617026 10.02685697 21.47322091 24.05461675 24.10009766 40.04541016 C25.98665451 58.16152459 22.50911573 74.9076592 11.24853516 89.56494141 C0.88240122 101.5773549 -12.62830744 110.66394263 -28.61474609 112.78369141 C-48.06531836 114.17036492 -66.04538752 110.41839909 -81.17724609 97.40869141 C-93.27621382 85.57362734 -100.55963198 70.67661119 -100.96875 53.77075195 C-101.10140703 35.29286182 -96.57557807 19.61384748 -83.61474609 5.78369141 C-60.96337496 -15.93066258 -25.34213299 -19.08897891 0 0 Z M-66.36474609 27.53369141 C-72.38684244 34.69696126 -75.0001552 43.57791834 -74.55224609 52.84619141 C-73.81262008 61.30866569 -70.60590681 68.26907757 -65.11474609 74.72119141 C-63.87724609 75.74212891 -63.87724609 75.74212891 -62.61474609 76.78369141 C-61.72787109 77.62931641 -60.84099609 78.47494141 -59.92724609 79.34619141 C-52.65723101 85.24029571 -43.33034378 87.28390233 -34.14990234 86.60009766 C-24.19276988 85.07428115 -15.66867504 80.12650492 -9.34130859 72.31494141 C-3.02274565 63.05152786 -1.15423628 53.90241129 -2.61474609 42.78369141 C-5.54085511 32.07115672 -10.99081022 24.86746958 -20.34912109 19.07275391 C-36.68543271 9.77795592 -53.97885672 14.48897813 -66.36474609 27.53369141 Z " fill="#D9BA27" transform="translate(100.61474609375,20.21630859375)"/>
<path d="M0 0 C12.12527253 10.1428867 20.63238702 25.06938353 22.1105957 40.89770508 C23.16317366 61.1432361 19.23083108 76.32831252 6.0625 92.125 C-4.4270841 103.39828866 -19.39870943 110.95028427 -34.8515625 111.7109375 C-54.48781245 112.07435111 -70.30937684 107.52656825 -84.87890625 93.6796875 C-96.8505567 81.39573313 -103.00498327 66.20164325 -103.5625 49.0625 C-103.12337128 31.29608374 -96.56726358 15.68643126 -84.01171875 3.03515625 C-60.05160938 -19.04445739 -25.48228101 -18.83812798 0 0 Z M-67.125 24.375 C-75.08297117 34.52047035 -77.5042573 43.40467652 -76.125 56.375 C-73.41869884 67.02479623 -67.31646387 75.14689591 -57.9375 80.8125 C-49.63751629 84.93950021 -40.59868382 86.49406921 -31.5390625 84.20703125 C-19.15172722 79.93760987 -12.586581 73.37507628 -6.3125 62.125 C-3.03246593 51.76699768 -3.37907165 41.63419034 -8.3828125 31.9375 C-13.69358943 23.34739087 -21.25371766 16.90749954 -30.921875 13.796875 C-44.11285215 11.27094321 -57.98311879 14.01420129 -67.125 24.375 Z " fill="#D9BA27" transform="translate(490.125,21.625)"/>
<path d="M0 0 C12.24986611 9.46734805 21.35138002 23.50463602 23.9453125 38.9296875 C25.72204918 59.85679648 21.97177248 77.09512878 8.26953125 93.51171875 C-3.66747214 105.93021472 -19.12983177 112.65538015 -36.26416016 113.33447266 C-53.99932718 113.60239964 -69.98807895 107.43804957 -82.94238281 95.25732422 C-94.92331257 83.36905128 -100.88923068 67.45424443 -101.4296875 50.8046875 C-101.12296305 32.90641344 -94.49896481 17.34463796 -81.875 4.58984375 C-58.8273424 -17.14901335 -25.54139177 -17.31066194 0 0 Z M-63.3515625 23.90234375 C-70.65715457 31.46884983 -74.27161332 39.92714664 -74.6796875 50.4296875 C-74.33229304 59.84793723 -71.3548841 68.49550646 -64.78125 75.40625 C-55.40652757 83.67806391 -47.12747623 86.50731342 -34.6796875 86.2109375 C-24.32067066 85.40722068 -17.34198441 80.59130872 -10.3046875 73.1796875 C-4.28259116 66.01641765 -1.66927839 57.13546057 -2.1171875 47.8671875 C-2.85681352 39.40471322 -6.06352679 32.44430134 -11.5546875 25.9921875 C-12.3796875 25.3115625 -13.2046875 24.6309375 -14.0546875 23.9296875 C-14.9415625 23.0840625 -15.8284375 22.2384375 -16.7421875 21.3671875 C-30.79977379 9.97011626 -50.22439419 12.62816008 -63.3515625 23.90234375 Z " fill="#D9BA27" transform="translate(488.0546875,391.0703125)"/>
<path d="M0 0 C14.40101217 11.08898899 23.34582786 26.01287959 26 44 C27.52441994 61.12183864 23.33565918 77.69289459 12.48828125 91.2265625 C2.44034621 103.08997257 -12.28025637 112.30746123 -28 114 C-47.51480134 115.31310775 -64.30635851 111.09789534 -79.5859375 98.31640625 C-90.62444304 87.7244422 -98.68691575 73.09859631 -99.3359375 57.64453125 C-99.5038656 46.75147126 -99.43576105 37.11178423 -95 27 C-94.649375 26.13761719 -94.29875 25.27523437 -93.9375 24.38671875 C-86.84936788 8.56147934 -73.68270874 -1.92265711 -57.95019531 -8.30908203 C-38.79966243 -15.09376006 -16.39093673 -11.64194521 0 0 Z M-60.75 23.75 C-68.55202264 31.55202264 -72.4686679 40.71124279 -73.05859375 51.65625 C-72.88314331 61.66862202 -68.97397609 69.799466 -62.11328125 76.97265625 C-53.31859233 85.11076722 -44.82609003 87.60361711 -32.96484375 87.33984375 C-23.50759444 86.52922238 -15.20396407 82.17333346 -9 75 C-1.92202046 65.04659127 0.16348784 56.19825148 -1 44 C-3.68684724 33.35258674 -9.81913513 25.22170149 -19.1875 19.5625 C-34.11609621 12.13955535 -47.28816973 15.18338074 -60.75 23.75 Z " fill="#D9BA27" transform="translate(99,390)"/>
</svg>
